<svg width="152" height="32" viewBox="0 0 152 32" fill="none" xmlns="http://www.w3.org/2000/svg">
<g clip-path="url(#clip0_27828_83141)">
<path d="M31.7862 15.4224C31.1742 14.367 29.8128 14.0048 28.7512 14.6168C27.6896 15.2225 27.3274 16.5714 27.9394 17.6268C28.5576 18.6822 29.9128 19.0319 30.9744 18.4262C32.036 17.8204 32.4045 16.4715 31.7862 15.4224Z" fill="#ED6E25"/>
<path d="M24.0616 14.8105C23.1061 15.3538 22.7814 16.5653 23.3309 17.5207C23.8867 18.4637 25.1107 18.7947 26.0662 18.2451C27.0216 17.7018 27.3464 16.4841 26.7968 15.5411C26.2473 14.5919 25.0233 14.2672 24.0678 14.8167" fill="#ED6E25"/>
<path d="M19.3464 14.9977C18.4908 15.4848 18.2035 16.5652 18.6969 17.402C19.184 18.245 20.2768 18.5385 21.1261 18.0452C21.9754 17.5643 22.269 16.484 21.7756 15.6409C21.2885 14.8041 20.1957 14.5106 19.3526 14.9977" fill="#ED6E25"/>
<path d="M18.6216 13.7544C19.3771 13.3236 19.6393 12.3621 19.2022 11.6066C18.7589 10.8449 17.7849 10.5889 17.0232 11.026C16.2677 11.463 16.0055 12.4246 16.4426 13.1738C16.8796 13.9293 17.8536 14.1853 18.6153 13.7482" fill="#ED6E25"/>
<path d="M12.3396 11.2258C11.684 11.5942 11.4592 12.4184 11.8339 13.074C12.2147 13.717 13.0514 13.9418 13.7007 13.5672C14.3563 13.1988 14.5748 12.3684 14.2002 11.7253C13.8256 11.076 12.9889 10.8512 12.3396 11.2321" fill="#ED6E25"/>
<path d="M10.0539 15.5533C9.51074 15.8592 9.32968 16.5398 9.64186 17.083C9.96028 17.6199 10.6408 17.801 11.184 17.495C11.7272 17.1891 11.9145 16.5023 11.6024 15.9654C11.2902 15.4284 10.5971 15.2473 10.0539 15.5533Z" fill="#ED6E25"/>
<path d="M12.5583 19.8624C12.1212 20.1122 11.9714 20.6678 12.2274 21.1049C12.4771 21.5419 13.039 21.6918 13.4823 21.442C13.9194 21.1923 14.0692 20.6366 13.8195 20.1933C13.5697 19.7563 13.0016 19.6064 12.5583 19.8624Z" fill="#ED6E25"/>
<path d="M24.6673 13.2992C25.5353 12.7996 25.8288 11.713 25.3292 10.8574C24.8234 9.99565 23.7243 9.70839 22.8625 10.2017C22.0007 10.7013 21.7072 11.7879 22.2006 12.6435C22.7002 13.499 23.8055 13.7925 24.661 13.3054" fill="#ED6E25"/>
<path d="M18.753 9.10191C19.2276 9.91358 20.2765 10.1945 21.1069 9.72003C21.9248 9.25175 22.1995 8.21531 21.725 7.3974C21.2567 6.57949 20.2078 6.30477 19.3836 6.77928C18.5657 7.24755 18.2848 8.29024 18.7593 9.10191" fill="#ED6E25"/>
<path d="M16.7605 6.22351C16.3359 5.49301 15.3931 5.24951 14.6626 5.66783C13.9321 6.08615 13.6761 7.01645 14.0944 7.74695C14.5252 8.47746 15.4618 8.7272 16.1923 8.30888C16.929 7.89056 17.1788 6.95401 16.7542 6.22351" fill="#ED6E25"/>
<path d="M11.3335 9.49545C12.0265 9.1021 12.27 8.22175 11.8642 7.52871C11.4583 6.83567 10.5717 6.59841 9.87871 6.998C9.17942 7.39135 8.94216 8.27794 9.348 8.96474C9.74759 9.65154 10.6342 9.89504 11.3272 9.4892" fill="#ED6E25"/>
<path d="M7.73664 12.8552C8.35475 12.5055 8.56079 11.7251 8.21115 11.1132C7.85526 10.5013 7.06857 10.289 6.45045 10.6449C5.83233 10.9946 5.62629 11.775 5.98218 12.3869C6.33806 12.9988 7.13101 13.2111 7.73664 12.8552Z" fill="#ED6E25"/>
<path d="M6.71272 15.9966C6.41927 15.4909 5.77618 15.3223 5.27044 15.6157C4.75847 15.903 4.58989 16.546 4.88334 17.0455C5.17679 17.545 5.82613 17.7198 6.32562 17.4326C6.83135 17.1392 7.01241 16.5023 6.71272 15.9966Z" fill="#ED6E25"/>
<path d="M7.87381 20.8427C7.62406 20.4119 7.08087 20.2683 6.65006 20.5181C6.21925 20.7678 6.0694 21.311 6.31915 21.7356C6.56889 22.1601 7.11209 22.3037 7.5429 22.0602C7.97995 21.8167 8.12355 21.2673 7.87381 20.849" fill="#ED6E25"/>
<path d="M10.2036 24.0776C9.81028 24.3023 9.67292 24.8018 9.90393 25.1889C10.1287 25.576 10.6344 25.7134 11.0215 25.4886C11.4149 25.2639 11.5522 24.7644 11.3275 24.3773C11.1027 23.9902 10.597 23.8528 10.2036 24.0838" fill="#ED6E25"/>
<path d="M15.081 25.4702C14.7501 25.6575 14.6315 26.0821 14.825 26.4193C15.0186 26.7502 15.4494 26.8626 15.7803 26.669C16.1175 26.4817 16.2299 26.0571 16.0363 25.72C15.8427 25.3828 15.4119 25.2767 15.0748 25.4702" fill="#ED6E25"/>
<path d="M19.9458 24.2714C19.6648 24.4337 19.5711 24.7958 19.7335 25.0705C19.8896 25.3515 20.2517 25.4452 20.5389 25.2828C20.8199 25.1205 20.9198 24.7646 20.7574 24.4774C20.5951 24.1964 20.233 24.109 19.9458 24.2714Z" fill="#ED6E25"/>
<path d="M30.0003 13.3179C30.962 12.7684 31.293 11.5506 30.731 10.5951C30.1814 9.63343 28.9512 9.31494 27.9832 9.86449C27.0153 10.414 26.6905 11.638 27.2526 12.5873C27.8021 13.549 29.0386 13.8737 30.0003 13.3179Z" fill="#ED6E25"/>
<path d="M27.4152 8.94008C28.3269 8.40927 28.6454 7.25397 28.1146 6.34222C27.5838 5.42422 26.4035 5.11823 25.4918 5.64279C24.5675 6.16736 24.2615 7.32891 24.7923 8.2469C25.3231 9.15865 26.4909 9.4709 27.4152 8.94633" fill="#ED6E25"/>
<path d="M23.4746 5.57429C24.2989 5.09968 24.5799 4.05055 24.1116 3.23871C23.6307 2.41439 22.5753 2.13962 21.751 2.60798C20.9267 3.07635 20.6394 4.12548 21.114 4.94356C21.5949 5.76164 22.6503 6.04266 23.4746 5.57429Z" fill="#ED6E25"/>
<path d="M18.7279 3.82509C19.5084 3.37555 19.7768 2.38282 19.3273 1.60861C18.8778 0.834398 17.8725 0.565923 17.0921 1.01546C16.3116 1.465 16.0432 2.4515 16.4989 3.23195C16.9422 4.0124 17.9475 4.27463 18.7279 3.82509Z" fill="#ED6E25"/>
<path d="M13.6505 3.68138C14.3498 3.28803 14.587 2.40144 14.1812 1.7084C13.7816 1.01535 12.8888 0.778096 12.1895 1.17769C11.4902 1.57728 11.2529 2.46387 11.6588 3.15692C12.0583 3.84371 12.9512 4.08097 13.6505 3.68138Z" fill="#ED6E25"/>
<path d="M9.3982 3.45085C9.01733 2.80151 8.18069 2.57674 7.52511 2.95136C6.86953 3.32598 6.64476 4.16262 7.01938 4.81196C7.40024 5.46129 8.23688 5.68606 8.89871 5.31145C9.55429 4.93683 9.77906 4.10643 9.3982 3.45085Z" fill="#ED6E25"/>
<path d="M5.00158 8.34026C5.58223 8.00935 5.77578 7.27884 5.44487 6.70443C5.10772 6.13002 4.37097 5.93647 3.79031 6.26738C3.20966 6.59829 3.00986 7.32879 3.34702 7.90945C3.68417 8.48386 4.42716 8.68366 5.00158 8.3465" fill="#ED6E25"/>
<path d="M1.29858 10.6012C0.755387 10.9072 0.568079 11.5939 0.88026 12.1309C1.19244 12.6679 1.88548 12.8489 2.42243 12.543C2.96563 12.237 3.15294 11.5502 2.84076 11.0133C2.52858 10.4763 1.83553 10.289 1.29858 10.6012Z" fill="#ED6E25"/>
<path d="M1.83517 16.0404C1.56045 15.5721 0.961066 15.4161 0.486551 15.6783C0.0182792 15.9468 -0.144055 16.5399 0.130664 17.0144C0.39914 17.4827 0.998528 17.645 1.47304 17.3703C1.94131 17.1018 2.10365 16.5024 1.83517 16.0404Z" fill="#ED6E25"/>
<path d="M1.39861 20.6179C0.967803 20.8739 0.817956 21.4171 1.07394 21.8479C1.32369 22.285 1.87937 22.4286 2.31018 22.1726C2.74099 21.9291 2.89084 21.3734 2.64109 20.9489C2.39135 20.5118 1.83567 20.3682 1.39861 20.6179Z" fill="#ED6E25"/>
<path d="M3.96567 25.0332C3.59729 25.2455 3.46618 25.72 3.6847 26.0883C3.89699 26.4567 4.3715 26.5816 4.73988 26.3755C5.11449 26.1633 5.23937 25.6887 5.02708 25.3204C4.8148 24.952 4.34028 24.8271 3.96567 25.0394" fill="#ED6E25"/>
<path d="M7.83745 28.2993C7.50029 28.4928 7.38166 28.9236 7.58146 29.2608C7.77501 29.5917 8.20582 29.7166 8.54298 29.5168C8.88013 29.3232 8.99876 28.8987 8.79897 28.5615C8.59917 28.2244 8.1746 28.112 7.8312 28.3055" fill="#ED6E25"/>
<path d="M12.6207 30.1103C12.3397 30.2727 12.2398 30.6286 12.4021 30.9095C12.5582 31.1905 12.9266 31.2841 13.2076 31.1218C13.4885 30.9595 13.5884 30.6036 13.4261 30.3226C13.2575 30.0417 12.9016 29.9418 12.6207 30.1041" fill="#ED6E25"/>
<path d="M17.8162 30.0727C17.5352 30.235 17.4353 30.5972 17.5977 30.8719C17.76 31.1529 18.1221 31.2465 18.4031 31.0904C18.6903 30.9218 18.7902 30.5722 18.6216 30.285C18.4593 30.004 18.0972 29.9104 17.8162 30.0727Z" fill="#ED6E25"/>
<path d="M22.4128 28.4303C22.1506 28.5801 22.0632 28.9173 22.213 29.167C22.3629 29.4292 22.7 29.5104 22.956 29.3668C23.2183 29.217 23.3119 28.8861 23.1621 28.6238C23.006 28.3678 22.6688 28.2742 22.4128 28.424" fill="#ED6E25"/>
<path d="M26.2969 25.2955C26.0846 25.4204 26.0097 25.6889 26.1345 25.9074C26.2594 26.1197 26.5341 26.1884 26.7527 26.0635C26.9649 25.9449 27.0399 25.6701 26.915 25.4579C26.7964 25.2393 26.5216 25.1707 26.3031 25.2893" fill="#ED6E25"/>
<path d="M53.5055 16.8024C53.4618 15.3224 52.9685 14.2108 52.0255 13.4677C51.0825 12.7245 49.8523 12.3561 48.3348 12.3561C47.6666 12.3561 47.0296 12.4497 46.4176 12.6371C45.8056 12.8244 45.2561 13.0992 44.769 13.4739C44.2819 13.8423 43.8697 14.3045 43.5387 14.8603C43.2077 15.4161 42.9767 16.0655 42.8518 16.8087H53.5055V16.8024ZM55.0605 23.3158C54.2487 24.24 53.237 24.927 52.0255 25.3704C50.8077 25.8137 49.6025 26.0323 48.3972 26.0323C47.192 26.0323 46.1241 25.845 45.1249 25.4765C44.1257 25.1081 43.2702 24.571 42.552 23.8716C41.8339 23.1722 41.2781 22.3229 40.8846 21.3237C40.4912 20.3245 40.2914 19.2067 40.2914 17.9702C40.2914 16.8149 40.4912 15.7595 40.8846 14.7916C41.2781 13.8236 41.8276 12.993 42.5333 12.2874C43.239 11.588 44.082 11.0447 45.0562 10.6512C46.0304 10.264 47.0983 10.0642 48.2661 10.0642C49.4339 10.0642 50.5392 10.2391 51.5384 10.5888C52.5376 10.9385 53.3869 11.4818 54.0925 12.2124C54.7982 12.9431 55.3228 13.8673 55.6662 14.9789C56.0097 16.0905 56.1096 17.4019 55.9597 18.9007H42.8455C42.908 19.6438 43.1016 20.3058 43.4201 20.8928C43.7385 21.4798 44.1507 21.9856 44.6503 22.4041C45.1499 22.8287 45.7244 23.1472 46.3801 23.3595C47.0358 23.5781 47.7228 23.6843 48.4534 23.6843C48.8906 23.6843 49.3402 23.6405 49.8086 23.5594C50.2769 23.4782 50.7266 23.3595 51.1637 23.2034C51.6008 23.0473 52.013 22.8537 52.3939 22.6164C52.7811 22.3791 53.0934 22.1043 53.3431 21.7983L55.0855 23.3096H55.0542L55.0605 23.3158Z" fill="white"/>
<path d="M59.2388 10.4077L61.7617 16.3716L64.3471 23.0099L66.9324 16.4028L69.4241 10.4077H72.2593L65.7459 25.6951H62.9732L56.4348 10.4077H59.2388Z" fill="white"/>
<path d="M85.7729 16.8024C85.7292 15.3224 85.2358 14.2108 84.2928 13.4677C83.3499 12.7245 82.1134 12.3561 80.6021 12.3561C79.9339 12.3561 79.2969 12.4497 78.685 12.6371C78.073 12.8244 77.5234 13.0992 77.0363 13.4739C76.5492 13.8423 76.137 14.3045 75.8061 14.8603C75.4751 15.4161 75.244 16.0655 75.1191 16.8087H85.7729V16.8024ZM87.3341 23.3158C86.5223 24.24 85.5106 24.927 84.2991 25.3704C83.0813 25.8137 81.8761 26.0323 80.6708 26.0323C79.4656 26.0323 78.3977 25.845 77.3985 25.4765C76.3993 25.1081 75.5438 24.571 74.8319 23.8716C74.1137 23.1722 73.5579 22.3229 73.1645 21.3237C72.7711 20.3245 72.5712 19.2067 72.5712 17.9702C72.5712 16.8149 72.7711 15.7595 73.1645 14.7916C73.5579 13.8236 74.1075 12.993 74.8131 12.2874C75.5188 11.588 76.3619 11.0447 77.3361 10.6512C78.3103 10.264 79.3844 10.0642 80.5459 10.0642C81.7075 10.0642 82.8191 10.2391 83.8182 10.5888C84.8174 10.9385 85.6667 11.4818 86.3724 12.2124C87.078 12.9431 87.6026 13.8673 87.9461 14.9789C88.2896 16.0905 88.3895 17.4019 88.2396 18.9007H75.1254C75.1878 19.6438 75.3814 20.3058 75.6999 20.8928C76.0246 21.4798 76.4306 21.9856 76.9301 22.4041C77.4297 22.8287 78.0043 23.1472 78.66 23.3595C79.3157 23.5781 80.0026 23.6843 80.7333 23.6843C81.1704 23.6843 81.62 23.6405 82.0884 23.5594C82.5568 23.4782 83.0064 23.3595 83.4435 23.2034C83.8807 23.0473 84.2866 22.8537 84.6738 22.6164C85.061 22.3791 85.3732 22.1043 85.623 21.7983L87.3653 23.3096H87.3341V23.3158Z" fill="white"/>
<path d="M93.5291 12.6621C94.0911 11.6754 94.803 10.9947 95.6648 10.6263C96.5266 10.2578 97.3947 10.0705 98.2627 10.0705C98.9247 10.0517 99.5741 10.1579 100.192 10.3952C100.817 10.6325 101.366 10.926 101.841 11.2757L100.686 13.4364C100.274 13.1492 99.8551 12.9306 99.443 12.787C99.0246 12.6433 98.55 12.5684 98.0129 12.5684C97.3884 12.5684 96.8077 12.6746 96.2706 12.8931C95.7335 13.1117 95.2527 13.4177 94.8343 13.8174C94.4159 14.2171 94.0911 14.6979 93.8538 15.2537C93.6165 15.8095 93.4979 16.4402 93.4979 17.1396V25.6639H90.9437V10.4389H93.3105L93.5291 12.6621Z" fill="white"/>
<path d="M110.228 10.3452H114.962V12.5059H110.197V20.8428C110.197 21.7483 110.372 22.4665 110.709 22.9911C111.052 23.5156 111.689 23.7779 112.626 23.7779C112.976 23.7779 113.332 23.7217 113.688 23.6093C114.044 23.4969 114.393 23.3595 114.749 23.1909L115.499 25.2892C114.5 25.7638 113.507 26.0073 112.507 26.0323C110.821 26.076 109.591 25.6389 108.817 24.7209C108.036 23.8029 107.649 22.5102 107.649 20.8428V12.5059H104.564V10.3452H107.649V6.2361L110.234 5.95508V10.339L110.228 10.3452Z" fill="white"/>
<path d="M129.449 16.8024C129.406 15.3224 128.912 14.2108 127.969 13.4677C127.026 12.7245 125.79 12.3561 124.279 12.3561C123.61 12.3561 122.973 12.4497 122.361 12.6371C121.749 12.8244 121.2 13.0992 120.713 13.4739C120.226 13.8423 119.813 14.3045 119.483 14.8603C119.152 15.4161 118.92 16.0655 118.796 16.8087H129.449V16.8024ZM131.004 23.3158C130.192 24.24 129.181 24.927 127.969 25.3704C126.752 25.8137 125.546 26.0323 124.341 26.0323C123.136 26.0323 122.068 25.845 121.069 25.4765C120.07 25.1081 119.214 24.571 118.502 23.8716C117.784 23.1722 117.228 22.3229 116.835 21.3237C116.441 20.3245 116.241 19.2067 116.241 17.9702C116.241 16.8149 116.441 15.7595 116.835 14.7916C117.228 13.8236 117.778 12.993 118.483 12.2874C119.189 11.588 120.032 11.0447 121.006 10.6512C121.98 10.264 123.055 10.0642 124.216 10.0642C125.378 10.0642 126.489 10.2391 127.488 10.5888C128.488 10.9385 129.337 11.4818 130.043 12.2124C130.748 12.9431 131.273 13.8673 131.616 14.9789C131.96 16.0905 132.06 17.4019 131.91 18.9007H118.796C118.858 19.6438 119.052 20.3058 119.37 20.8928C119.695 21.4798 120.101 21.9856 120.6 22.4041C121.1 22.8287 121.674 23.1472 122.33 23.3595C122.986 23.5781 123.673 23.6843 124.403 23.6843C124.841 23.6843 125.29 23.6405 125.759 23.5594C126.227 23.4782 126.677 23.3595 127.114 23.2034C127.551 23.0473 127.957 22.8537 128.344 22.6164C128.731 22.3791 129.043 22.1043 129.293 21.7983L131.036 23.3096H131.004V23.3158Z" fill="white"/>
<path d="M148.053 23.6905C147.241 24.5148 146.355 25.1143 145.387 25.4828C144.419 25.8512 143.407 26.0386 142.352 26.0386C141.296 26.0386 140.216 25.8575 139.235 25.4953C138.255 25.1331 137.406 24.6147 136.681 23.9341C135.957 23.2534 135.376 22.4228 134.951 21.4299C134.527 20.4432 134.315 19.3129 134.315 18.0327C134.315 16.7525 134.521 15.6534 134.939 14.6667C135.351 13.68 135.926 12.8432 136.65 12.1625C137.375 11.4818 138.23 10.9635 139.204 10.6013C140.178 10.2391 141.228 10.0642 142.352 10.0642C143.413 10.0642 144.4 10.2516 145.312 10.62C146.223 10.9884 147.098 11.5692 147.928 12.3498L146.273 14.0172C145.736 13.4801 145.124 13.093 144.45 12.8432C143.775 12.5934 143.095 12.4747 142.408 12.4747C141.64 12.4747 140.915 12.6059 140.241 12.8619C139.566 13.1179 138.979 13.4864 138.48 13.961C137.98 14.4356 137.587 15.0164 137.293 15.7033C137 16.3965 136.856 17.1709 136.856 18.0327C136.856 18.8944 137 19.7375 137.293 20.4244C137.581 21.1114 137.986 21.6984 138.492 22.1668C138.998 22.6414 139.585 22.9973 140.253 23.2471C140.922 23.4969 141.627 23.6156 142.37 23.6156C143.114 23.6156 143.813 23.4907 144.519 23.2284C145.224 22.9723 145.849 22.5664 146.386 22.0106L148.072 23.7092L148.041 23.678L148.053 23.6905Z" fill="white"/>
<path d="M150.507 11.4191V11.8375H150.857C150.931 11.8375 150.988 11.8187 151.025 11.775C151.063 11.7313 151.081 11.6814 151.081 11.6314C151.081 11.5815 151.063 11.5315 151.025 11.4878C150.988 11.4441 150.931 11.4191 150.857 11.4191H150.501H150.507ZM150.988 12.0123L151.356 12.4431V12.493H151.094L150.725 12.0372H150.501V12.493H150.263V11.1819H150.857C150.95 11.1819 151.031 11.2006 151.1 11.2381C151.169 11.2755 151.219 11.3192 151.256 11.3817C151.294 11.4379 151.319 11.5003 151.325 11.569C151.331 11.6377 151.325 11.7001 151.3 11.7625C151.275 11.825 151.237 11.8749 151.187 11.9249C151.138 11.9748 151.069 11.9998 150.981 12.0185L150.988 12.0123ZM149.751 11.8562C149.751 11.9998 149.776 12.1371 149.82 12.262C149.864 12.3869 149.926 12.4993 150.014 12.5929C150.101 12.6866 150.201 12.7615 150.326 12.8115C150.451 12.8614 150.588 12.8926 150.744 12.8926C150.9 12.8926 151.044 12.8676 151.169 12.8115C151.294 12.7553 151.4 12.6866 151.481 12.5929C151.562 12.4993 151.631 12.3869 151.674 12.262C151.718 12.1371 151.743 11.9998 151.743 11.8562C151.743 11.7126 151.718 11.5752 151.674 11.4503C151.631 11.3255 151.568 11.2131 151.481 11.1194C151.394 11.0258 151.294 10.9571 151.169 10.9009C151.044 10.8447 150.906 10.8197 150.744 10.8197C150.582 10.8197 150.444 10.8447 150.326 10.9009C150.201 10.9571 150.101 11.0258 150.014 11.1194C149.926 11.2131 149.864 11.3192 149.82 11.4503C149.776 11.5752 149.751 11.7126 149.751 11.8624V11.8499V11.8562ZM150.744 10.595C150.944 10.595 151.125 10.6262 151.281 10.6949C151.437 10.7635 151.568 10.851 151.674 10.9696C151.781 11.082 151.862 11.2193 151.918 11.3754C151.974 11.5315 151.999 11.6938 151.999 11.8687C151.999 12.0435 151.974 12.2058 151.918 12.3557C151.862 12.5118 151.781 12.6429 151.674 12.7615C151.568 12.8739 151.437 12.9675 151.281 13.0362C151.125 13.1049 150.944 13.1361 150.744 13.1361C150.544 13.1361 150.363 13.1049 150.207 13.0362C150.051 12.9675 149.92 12.8801 149.814 12.7615C149.708 12.6429 149.627 12.5118 149.57 12.3557C149.514 12.1996 149.489 12.0372 149.489 11.8687C149.489 11.7001 149.514 11.5315 149.57 11.3754C149.627 11.2193 149.708 11.0882 149.814 10.9696C149.92 10.8572 150.051 10.7635 150.207 10.6949C150.363 10.6262 150.544 10.595 150.744 10.595Z" fill="white"/>
</g>
<defs>
<clipPath id="clip0_27828_83141">
<rect width="152" height="30.4062" fill="white" transform="translate(0 0.796875)"/>
</clipPath>
</defs>
</svg>
