<svg version="1.1" xmlns="http://www.w3.org/2000/svg" x="0px" y="0px"
	 width="100%" viewBox="0 0 990 173" xml:space="preserve">
<path fill="#FFFFFF" opacity="1.000000" stroke="none" 
	d="
M567.999084,126.000000 
	C574.142334,126.000000 579.785950,126.000000 585.713928,126.000000 
	C585.713928,135.619873 585.713928,145.025055 585.713928,154.779144 
	C584.358948,154.849915 582.922119,154.989868 581.485291,154.990448 
	C550.490845,155.003006 519.496460,155.003845 488.502045,154.996933 
	C481.867096,154.995453 480.005432,153.163361 480.003876,146.611328 
	C479.995636,112.117546 480.029907,77.623711 479.959839,43.130070 
	C479.951630,39.089912 481.232422,36.078640 485.525848,36.063820 
	C518.829163,35.948898 552.133057,36.000397 585.718140,36.000397 
	C585.718140,45.628487 585.718140,55.033669 585.718140,65.000000 
	C577.343750,65.000000 568.910461,65.000000 560.477173,65.000000 
	C556.144592,65.000000 551.684387,64.334747 547.505737,65.136650 
	C538.434998,66.877342 533.623047,61.722145 528.976685,55.364998 
	C525.006836,49.933517 520.580994,44.835400 515.362183,40.136932 
	C515.362183,77.038757 515.362183,113.940582 515.362183,151.887695 
	C522.003784,143.744080 527.905945,136.302063 534.085693,129.098129 
	C535.361755,127.610603 537.645203,126.197044 539.508911,126.137154 
	C548.830872,125.837563 558.167786,126.000008 567.999084,126.000000 
z"/>
<path fill="#FFFFFF" opacity="1.000000" stroke="none" 
	d="
M757.000000,124.000000 
	C757.000000,94.535217 757.000000,65.570435 757.000000,36.303024 
	C768.581970,36.303024 779.983948,36.303024 791.883057,36.303024 
	C791.883057,74.359306 791.883057,112.542229 791.883057,152.247787 
	C794.816345,149.013535 796.875977,146.915894 798.737122,144.654892 
	C802.766785,139.759399 806.734741,134.811600 810.649292,129.823441 
	C812.963684,126.874290 815.754089,125.849251 819.596802,125.902092 
	C836.221375,126.130699 852.850830,126.000000 869.738525,126.000000 
	C869.738525,135.668137 869.738525,145.069931 869.738525,154.736938 
	C832.344543,154.736938 794.955139,154.736938 757.000000,154.736938 
	C757.000000,144.687958 757.000000,134.593979 757.000000,124.000000 
z"/>
<path fill="#FFFFFF" opacity="1.000000" stroke="none" 
	d="
M193.000000,66.997437 
	C193.000000,56.526508 193.000000,46.554832 193.000000,36.005703 
	C203.954208,36.005703 214.712631,35.888199 225.461960,36.147251 
	C226.882599,36.181492 228.568481,37.894665 229.605789,39.236637 
	C243.880890,57.704418 258.069550,76.239044 272.264618,94.768623 
	C275.314667,98.750038 278.265076,102.808426 281.354095,106.758873 
	C282.092682,107.703400 283.202850,108.357353 284.738159,109.644722 
	C284.738159,102.083168 284.738159,95.349091 284.738159,88.615013 
	C285.070312,88.454910 285.402466,88.294800 285.734619,88.134697 
	C288.987549,93.088791 292.217377,98.058281 295.498474,102.993660 
	C301.563629,112.116684 307.829681,121.111572 313.687195,130.365448 
	C318.337433,137.712006 320.223999,145.828125 318.581512,154.996902 
	C307.390900,154.996902 296.116821,155.065125 284.846222,154.897736 
	C283.638977,154.879807 282.117523,153.747482 281.305267,152.696609 
	C265.839935,132.687988 250.454147,112.617867 235.067612,92.548416 
	C233.201767,90.114700 231.659439,87.379517 229.518799,85.230721 
	C228.309219,84.016518 226.196030,83.128540 224.470963,83.096046 
	C214.172211,82.902031 203.867950,83.000015 193.000000,83.000015 
	C193.000000,77.691078 193.000000,72.593880 193.000000,66.997437 
z"/>
<path fill="#FFFFFF" opacity="1.000000" stroke="none" 
	d="
M720.002380,120.026840 
	C725.862488,131.630814 731.687988,142.853577 737.838501,154.702454 
	C725.134827,154.702454 713.410828,154.702454 701.270081,154.702454 
	C691.256470,133.230087 681.133179,111.445976 670.935242,89.696846 
	C667.387817,82.131149 663.792969,74.579109 659.872375,67.205521 
	C659.222168,65.982536 656.788574,65.110374 655.168396,65.093498 
	C640.020996,64.935738 624.871277,65.000000 609.361145,65.000000 
	C609.361145,55.542744 609.361145,46.139805 609.361145,36.347092 
	C610.105042,36.258518 611.189941,36.017895 612.275085,36.016666 
	C632.254272,35.994038 652.234253,36.082664 672.211914,35.910221 
	C675.181030,35.884590 676.643799,36.970798 677.884705,39.376755 
	C686.208618,55.516068 694.564819,71.639046 702.989929,87.725754 
	C708.581055,98.401398 714.303894,109.008080 720.002380,120.026840 
z"/>
<path fill="#FFFFFF" opacity="1.000000" stroke="none" 
	d="
M386.119446,103.625397 
	C381.835571,100.646881 377.746948,98.031441 373.775970,95.248177 
	C364.654572,88.855049 355.575165,82.401588 346.514008,75.923203 
	C344.295563,74.337105 342.724426,72.747574 342.850769,69.314751 
	C343.253418,58.372250 343.000000,47.405598 343.000000,36.225906 
	C354.742126,36.225906 366.143982,36.225906 378.000000,36.225906 
	C378.000000,44.276829 378.081726,52.222900 377.952454,60.165531 
	C377.911224,62.699238 378.668427,64.014252 380.913574,65.598793 
	C405.724823,83.109947 430.389984,100.829071 454.977509,118.653587 
	C456.489227,119.749481 457.804840,122.178909 457.866028,124.032303 
	C458.162750,133.018723 457.945343,142.020844 458.033966,151.016190 
	C458.059753,153.631622 457.418396,155.060608 454.433899,155.037582 
	C442.467102,154.945236 430.499146,154.999405 418.000000,154.999405 
	C418.000000,146.649658 417.881378,138.545731 418.063354,130.448578 
	C418.128296,127.559334 417.416443,125.865768 414.822845,124.117683 
	C405.179260,117.617950 395.828705,110.683487 386.119446,103.625397 
z"/>
<path fill="#FFFFFF" opacity="1.000000" stroke="none" 
	d="
M5.000000,63.999691 
	C5.000000,54.528271 5.000000,45.556736 5.000000,36.293159 
	C40.254555,36.293159 75.304359,36.293159 110.677391,36.293159 
	C110.677391,45.539059 110.677391,54.940887 110.677391,65.000000 
	C104.797745,65.000000 98.711540,65.000000 92.625328,65.000000 
	C85.631683,65.000000 78.621399,64.707565 71.650307,65.104073 
	C67.095352,65.363144 64.502190,63.425480 61.915886,60.006042 
	C56.806675,53.250996 51.240505,46.840824 45.829456,40.316105 
	C45.345860,39.732975 44.615341,39.354630 43.412521,38.429916 
	C43.412521,53.553879 43.412521,68.023537 43.412521,82.881226 
	C60.347164,82.881226 77.411728,82.881226 94.736176,82.881226 
	C94.736176,92.660995 94.736176,102.060768 94.736176,111.993706 
	C84.991753,111.993706 75.174728,112.566711 65.504723,111.626984 
	C62.781574,111.362343 60.294842,106.815353 58.040241,103.963310 
	C53.323803,97.997078 48.968876,91.740746 44.140732,85.870659 
	C43.138481,84.652122 40.733143,84.104668 38.962685,84.079643 
	C27.831495,83.922279 16.696983,84.000000 5.000000,84.000000 
	C5.000000,77.354507 5.000000,70.927040 5.000000,63.999691 
z"/>
<path fill="#FFFFFF" opacity="1.000000" stroke="none" 
	d="
M134.402954,36.394062 
	C146.368149,36.056259 157.988129,36.056259 169.798737,36.056259 
	C169.798737,75.801498 169.798737,115.205269 169.798737,154.794922 
	C157.859222,154.794922 146.121185,154.794922 134.057724,154.794922 
	C134.057724,115.304565 134.057724,76.018219 134.402954,36.394062 
z"/>
<path fill="#FFFFFF" opacity="1.000000" stroke="none" 
	d="
M985.000000,60.862808 
	C985.391724,63.953400 984.710938,65.146477 981.642517,65.077652 
	C972.153625,64.864838 962.636292,65.340904 953.177124,64.769226 
	C950.696228,64.619286 947.950623,62.020805 946.079224,59.886772 
	C940.316711,53.315624 934.918396,46.425056 928.454285,38.529652 
	C928.454285,54.175220 928.454285,68.305962 928.454285,82.829956 
	C944.626587,82.829956 961.028015,82.829956 977.713013,82.829956 
	C977.713013,90.947380 977.713013,98.683891 977.713013,106.995132 
	C968.701721,106.995132 959.606873,107.084702 950.518311,106.886116 
	C949.330933,106.860176 948.032227,105.499519 947.029297,104.509598 
	C940.986816,98.545670 935.121826,92.396645 928.942749,86.580185 
	C927.467896,85.191849 925.038696,84.155052 923.024048,84.112518 
	C911.887756,83.877426 900.744019,84.000000 889.301758,84.000000 
	C889.301758,68.083214 889.301758,52.350933 889.301758,36.308525 
	C920.897644,36.308525 952.621887,36.308525 985.000000,36.308525 
	C985.000000,44.208054 985.000000,52.292698 985.000000,60.862808 
z"/>
<path fill="#FFFFFF" opacity="1.000000" stroke="none" 
	d="
M927.570435,131.999786 
	C946.813721,131.999985 965.614868,131.999985 984.707642,131.999985 
	C984.707642,139.602966 984.707642,147.006836 984.707642,154.707123 
	C953.069580,154.707123 921.344421,154.707123 889.309204,154.707123 
	C889.309204,132.424393 889.309204,110.018806 889.309204,86.446381 
	C893.174683,91.361092 896.592834,95.699905 900.003296,100.044746 
	C907.823425,110.007576 915.603271,120.002617 923.512878,129.893890 
	C924.325256,130.909821 925.904724,131.312408 927.570435,131.999786 
z"/>
<path fill="#FFFFFF" opacity="1.000000" stroke="none" 
	d="
M609.000000,140.993683 
	C609.000000,119.213646 609.000000,97.931999 609.000000,76.650360 
	C609.266968,76.462479 609.533936,76.274605 609.800842,76.086731 
	C612.148193,79.505829 614.554443,82.886223 616.832275,86.351006 
	C625.039978,98.835442 633.553345,111.137894 641.264832,123.923065 
	C646.572998,132.723679 646.332458,142.498825 642.913452,152.067032 
	C642.471130,153.304962 640.624756,154.843674 639.397339,154.871765 
	C629.451660,155.099442 619.498535,154.999603 609.000000,154.999603 
	C609.000000,150.348557 609.000000,145.920303 609.000000,140.993683 
z"/>
<path fill="#FFFFFF" opacity="1.000000" stroke="none" 
	d="
M5.000154,151.835251 
	C5.000019,130.414673 5.000019,109.481102 5.000019,87.014435 
	C16.090714,98.629181 26.308464,109.322853 36.518337,120.024040 
	C46.100002,130.066818 46.170704,142.090729 43.947613,154.998444 
	C31.583532,154.998444 19.455791,155.048279 7.330965,154.883636 
	C6.542627,154.872910 5.776662,153.214325 5.000154,151.835251 
z"/>
<path fill="#FFFFFF" opacity="1.000000" stroke="none" 
	d="
M404.186066,141.690125 
	C408.130676,145.837280 411.830261,149.717896 416.480835,154.595963 
	C391.105988,154.595963 367.307068,154.595963 343.253021,154.595963 
	C343.253021,145.316330 343.253021,135.916061 343.253021,126.366310 
	C362.562683,124.773621 381.299072,125.923187 398.108368,137.029358 
	C400.135468,138.368698 402.000763,139.952881 404.186066,141.690125 
z"/>
<path fill="#FFFFFF" opacity="1.000000" stroke="none" 
	d="
M428.316345,63.985306 
	C418.734161,61.464966 409.586823,58.709427 401.990997,52.889946 
	C396.020111,48.315395 390.754089,42.820820 385.174957,37.734936 
	C385.497589,37.272102 385.820221,36.809265 386.142883,36.346428 
	C409.931396,36.346428 433.719910,36.346428 457.755035,36.346428 
	C457.755035,45.690544 457.755035,55.081329 457.755035,65.407265 
	C448.055542,64.935928 438.406067,64.467033 428.316345,63.985306 
z"/>
<path fill="#FFFFFF" opacity="1.000000" stroke="none" 
	d="
M294.038849,83.000000 
	C290.895050,83.000000 288.246033,83.000000 285.300293,83.000000 
	C285.300293,67.405998 285.300293,52.000076 285.300293,36.296265 
	C296.269928,36.296265 307.345520,36.296265 319.211670,36.296265 
	C319.211670,51.612080 319.211670,67.003548 319.211670,83.000000 
	C310.725677,83.000000 302.629639,83.000000 294.038849,83.000000 
z"/>
<path fill="#FFFFFF" opacity="1.000000" stroke="none" 
	d="
M202.244858,99.741516 
	C210.199936,110.272957 220.024231,118.992172 224.375809,131.696960 
	C226.905258,139.081894 225.427368,146.045486 223.822433,153.106918 
	C223.629166,153.957245 221.559784,154.896271 220.344955,154.917038 
	C211.402130,155.069870 202.455490,154.999634 193.256409,154.999634 
	C193.256409,133.235977 193.256409,111.751801 193.256409,88.790283 
	C196.677979,92.979416 199.334091,96.231392 202.244858,99.741516 
z"/>
</svg>