<svg xmlns="http://www.w3.org/2000/svg" xmlns:xlink="http://www.w3.org/1999/xlink" width="121.48" height="32.63" viewBox="0 0 121.48 32.63">
  <defs>
    <clipPath id="clip-path">
      <rect id="Retângulo_1" data-name="Retângulo 1" width="121.48" height="32.63" fill="none"/>
    </clipPath>
  </defs>
  <g id="Grupo_1" data-name="Grupo 1" clip-path="url(#clip-path)">
    <path id="Caminho_1" data-name="Caminho 1" d="M1.621,22.746c2.59,0,5.792,8.593,18.587,5.713,0,0-12.933,13.749-16.682,13.749s-4.708-19.462-1.9-19.462" transform="translate(0 -19.056)"/>
    <path id="Caminho_2" data-name="Caminho 2" d="M74.928,19.76S95.192,0,98.556,0c4.523,0,1.726,26.723-6.427,26.723s-17.2-6.963-17.2-6.963" transform="translate(-62.773)"/>
    <path id="Caminho_3" data-name="Caminho 3" d="M288.722,46.769H292.1a3.828,3.828,0,0,0,4.1,3.557h1.99a3.179,3.179,0,0,0,3.436-3.074c0-4.672-12.508-1.929-12.508-9.735,0-3.5,3.134-5.817,6.631-5.817h1.928c3.376,0,6.48,1.99,6.9,5.877H301.23a3.37,3.37,0,0,0-3.557-2.924h-1.928c-1.688,0-3.2.965-3.2,2.683,0,4.732,12.538,1.748,12.538,9.766,0,3.857-3.285,6.178-7.022,6.178h-1.929c-4.1,0-7.2-2.562-7.415-6.51" transform="translate(-241.883 -26.557)"/>
    <path id="Caminho_4" data-name="Caminho 4" d="M396.145,69.6h3.225l3.013,9.524c.181.573.724.573.9,0l3.044-9.524h2.984l3.044,9.524c.18.573.693.573.874,0l3.044-9.524H419.5l-5,15.191h-3.134l-3.075-9.615c-.18-.542-.723-.542-.9,0l-3.165,9.615h-3.135Z" transform="translate(-331.88 -58.309)"/>
    <path id="Caminho_5" data-name="Caminho 5" d="M544.388,79.356c0-2.743,2.381-4.4,5.636-4.792l4.25-.512c.543-.061.814-.3.814-.754,0-1.567-1.176-2.531-2.894-2.531h-1.417a2.734,2.734,0,0,0-3.044,2.5h-3.256c.241-3.225,3.044-5.154,6.33-5.154h1.386c3.526,0,6.088,2.23,6.088,5.546v6.028c0,1.085.452,1.175,1.9,1.175v2.682h-2.171c-1.356,0-1.989-.482-2.321-1.356-.211-.451-.6-.451-.994-.12a6.733,6.733,0,0,1-4.792,1.718c-3.436,0-5.516-1.749-5.516-4.431m10.669-2.05v-.151c0-.452-.3-.784-.9-.693l-3.617.483c-1.627.241-2.894.874-2.894,2.321,0,1.236.874,1.959,2.743,1.959,2.562,0,4.672-1.3,4.672-3.918" transform="translate(-456.074 -57.064)"/>
    <path id="Caminho_6" data-name="Caminho 6" d="M668.2,75.95c0,4.491-3.074,7.837-7.052,7.837h-.874a5.875,5.875,0,0,1-3.436-1.266c-.633-.422-1.085-.211-1.085.422v6.752H652.59V68.354h3.165v.754c0,.512.513.693,1.115.271a5.531,5.531,0,0,1,3.406-1.266h.874c3.979,0,7.052,3.346,7.052,7.837m-12.689,0c0,3.014,1.868,5.094,4.16,5.094h1.175c2.14,0,4.129-2.08,4.129-5.094s-1.99-5.094-4.129-5.094h-1.175c-2.291,0-4.16,2.08-4.16,5.094" transform="translate(-546.722 -57.063)"/>
  </g>
</svg>
